<svg xmlns="http://www.w3.org/2000/svg" viewBox="0 0 14.16 20.62"><title>1@1x</title><path d="M0,19.09c.17,1.47,1.42,1.54,2.84,1.53H11.6c1.42,0,2.44-.25,2.55-1.7V1.63C14,.11,12.81,0,11.29,0H2.55C1,0,.1.27,0,1.77ZM2.16,3.45c0-1.17.44-1.29,1.62-1.29,8.61,0,8.23-.63,8.23,2.36,0,1.94.31,2.37-1.8,2.37C1,6.9,2.16,7.67,2.16,3.45Zm9.35,7.23c-2.24.22-1.84-1.71-.93-2A1,1,0,0,1,12,9.37C12.13,10,11.75,10.26,11.51,10.68Zm-9.27-.41C1.92,8.06,3.83,8.42,4.17,9.21a1,1,0,0,1-.45,1.42C2.93,11,2.75,10.6,2.24,10.27ZM6.57,8.82C8,8,8.64,10.08,7.68,10.6A1.09,1.09,0,0,1,6.08,9.32C6.29,8.64,6.21,9,6.57,8.82Zm4,3.73a1.06,1.06,0,0,1,.76,2A1.06,1.06,0,0,1,10.57,12.55Zm-7.81.09c1.32-.7,2.06,1.31,1,1.84a1.12,1.12,0,0,1-1.44-.39,1,1,0,0,1-.1-.94C2.43,12.57,2.43,12.81,2.76,12.64Zm5.31,1.45c-.4.29-.78.69-1.4.45a1.06,1.06,0,0,1-.56-1.37C6.42,12.18,8.37,12,8.06,14.08Zm2.51,2.38a1,1,0,0,1,.87,1.87A1,1,0,1,1,10.58,16.46Zm-6.34.44c.18,2-1.65,1.85-2,.92a1.06,1.06,0,0,1,.67-1.44C3.56,16.22,3.87,16.62,4.23,16.9Zm1.83,0c2.22-1.58,2.08.9,2,1-1,.85-1,.71-2,0Z" fill="none" fill-rule="evenodd"/></svg>