<svg xmlns="http://www.w3.org/2000/svg" viewBox="0 0 28 25"><title>6@1x</title><path d="M25.5,7.6H23V6.1A.5.5,0,0,0,23,6V6a.48.48,0,0,0,0-.07.5.5,0,0,0-.11-.16L17.25.15A.49.49,0,0,0,17,0H6.5A.5.5,0,0,0,6,.5V4H2.5A2.5,2.5,0,0,0,0,6.5v16A2.5,2.5,0,0,0,2.5,25h23A2.5,2.5,0,0,0,28,22.5V10.1A2.5,2.5,0,0,0,25.5,7.6ZM17.4,1.71l1.76,1.76L21.29,5.6H17.4ZM7,1h9.4V6.1a.5.5,0,0,0,.5.5H22v1H10V6.5A2.5,2.5,0,0,0,7.5,4H7ZM27,22.5A1.5,1.5,0,0,1,25.5,24H2.5A1.5,1.5,0,0,1,1,22.5V6.5A1.5,1.5,0,0,1,2.5,5h5A1.5,1.5,0,0,1,9,6.5V8.1a.5.5,0,0,0,.5.5h16A1.5,1.5,0,0,1,27,10.1Z" fill="none"/></svg>