<?xml version="1.0" encoding="utf-8"?>
<!-- Generator: Adobe Illustrator 21.1.0, SVG Export Plug-In . SVG Version: 6.00 Build 0)  -->
<svg version="1.1" id="Layer_1" xmlns="http://www.w3.org/2000/svg" xmlns:xlink="http://www.w3.org/1999/xlink" x="0px" y="0px"
	 viewBox="0 0 50 50" style="enable-background:new 0 0 50 50;" xml:space="preserve">
<style type="text/css">
	.st0{fill:rgb(102,104,112);}
</style>
<g>
	<path class="st0" d="M34.5,15.5H17.3L9.9,25l7.4,9.5h17.2c1.9,0,3.5-1.6,3.5-3.5V19C38,17.1,36.4,15.5,34.5,15.5z M37,31
		c0,1.4-1.1,2.5-2.5,2.5H17.8L11.1,25l6.6-8.5h16.8c1.4,0,2.5,1.1,2.5,2.5V31z"/>
	<polygon class="st0" points="31.6,19.6 27,24.3 22.4,19.6 21.6,20.4 26.3,25 21.6,29.6 22.4,30.4 27,25.7 31.6,30.4 32.4,29.6 
		27.7,25 32.4,20.4 	"/>
</g>
</svg>
