<svg xmlns="http://www.w3.org/2000/svg" viewBox="0 0 29.52 22.56"><defs><style>.cls-1{fill:#fff;}</style></defs><title>37</title><g id="Layer_2" data-name="Layer 2"><g id="Меню_системы" data-name="Меню системы"><path class="cls-1" d="M4.52,0h0a1,1,0,0,0-.74.31,1.05,1.05,0,0,0-.31.75V16.9A1.06,1.06,0,0,0,4.52,18c2.46,0,6.58.52,9.42,3.49V4.87a1,1,0,0,0-.15-.53C11.46.58,7,0,4.52,0Zm0,0"/><path class="cls-1" d="M26.06,16.9V1.06a1.05,1.05,0,0,0-.31-.75A1,1,0,0,0,25,0h0c-2.46,0-6.95.58-9.28,4.33a1,1,0,0,0-.15.53V21.45c2.84-3,7-3.49,9.42-3.49a1.06,1.06,0,0,0,1.06-1.06Zm0,0"/><path class="cls-1" d="M28.47,3.65H27.7V16.9A2.7,2.7,0,0,1,25,19.6c-2.09,0-5.53.41-8,2.72a25.43,25.43,0,0,1,11.18.22,1.06,1.06,0,0,0,1.29-1V4.71a1.06,1.06,0,0,0-1.06-1.06Zm0,0"/><path class="cls-1" d="M1.82,16.9V3.65H1.06A1.06,1.06,0,0,0,0,4.71V21.5a1.06,1.06,0,0,0,1.29,1,25.44,25.44,0,0,1,11.19-.22C10,20,6.6,19.6,4.52,19.6a2.7,2.7,0,0,1-2.69-2.7Zm0,0"/></g></g></svg>