<svg xmlns="http://www.w3.org/2000/svg" viewBox="0 0 23.59 22.21"><defs><style>.cls-1{fill:#787881;fill-rule:evenodd;}</style></defs><title>Asset 14</title><g id="Layer_2" data-name="Layer 2"><g id="Layer_1-2" data-name="Layer 1"><path class="cls-1" d="M10.78,16.73a1.46,1.46,0,1,0,1-.44,1.43,1.43,0,0,0-1,.44m-.44-7.8v4.44a1.47,1.47,0,0,0,2.52,1,1.42,1.42,0,0,0,.44-1V8.93a1.4,1.4,0,0,0-.44-1.07,1.52,1.52,0,0,0-2.09,0A1.4,1.4,0,0,0,10.34,8.93ZM1.5,20.73,11.82,1.48,22.09,20.73ZM23.39,20,13.11.79a1.46,1.46,0,0,0-2.59,0L.2,20a1.34,1.34,0,0,0,0,1.46,1.41,1.41,0,0,0,1.28.72H22.09a1.41,1.41,0,0,0,1.27-.72A1.35,1.35,0,0,0,23.39,20Z"/></g></g></svg>