<svg xmlns="http://www.w3.org/2000/svg" xmlns:xlink="http://www.w3.org/1999/xlink" viewBox="0 0 47.66 11.85"><defs><style>.cls-1{fill:none;}.cls-2{clip-path:url(#clip-path);}.cls-3{fill:url(#linear-gradient);}</style><clipPath id="clip-path"><path class="cls-1" d="M28.7,6.84h2.92L30.09,2.6Zm-14.11,5H11.27V0h3.32Zm23.72-3.5H35.65l1.28,3.5H33.41l-1.25-3.5h-4L27,11.85H25.32l1.2-3.5H22.7v3.5H19.38V1.6H16.22V0h9.64V1.6H22.7V6.84H27L29.39,0h3.21L35.1,6.84h3.21V0H42l3.92,6.06V0h1.78V11.85H45.73L40.07,3.19v8.66H38.31ZM3.16,11.85V1.6H0V0H17.16V1.6H6.48V11.85Z"/></clipPath><linearGradient id="linear-gradient" x1="23.83" y1="12.39" x2="23.83" y2="1.07" gradientUnits="userSpaceOnUse"><stop offset="0" stop-color="#a2a5ab"/><stop offset="0.05" stop-color="#acafb4"/><stop offset="0.2" stop-color="#cacccf"/><stop offset="0.37" stop-color="#e1e2e4"/><stop offset="0.55" stop-color="#f2f2f3"/><stop offset="0.75" stop-color="#fcfcfc"/><stop offset="1" stop-color="#fff"/></linearGradient></defs><title>logo</title><g id="Слой_2" data-name="Слой 2"><g id="Layer_1" data-name="Layer 1"><g class="cls-2"><rect class="cls-3" width="47.66" height="11.85"/></g></g></g></svg>