<svg xmlns="http://www.w3.org/2000/svg" viewBox="0 0 15.65 16.1"><defs><style>.cls-1{fill:#e9e9e9;}</style></defs><title>Ресурс 6</title><g id="Слой_2" data-name="Слой 2"><g id="Layer_9" data-name="Layer 9"><path class="cls-1" d="M15.4,5.44,10.27.26A.92.92,0,0,0,9,.26L1.85,7.5A.93.93,0,0,0,1.56,8L0,15.86c0,.17.09.26.26.23l7.48-1.83A2.29,2.29,0,0,0,8.25,14L15.4,6.73a.94.94,0,0,0,0-1.29ZM7,13.66H7l-3.88.94a.55.55,0,0,1-.51-.14L1.51,13.31a.67.67,0,0,1-.17-.52L2.13,8.7c.06-.14.17-.2.28-.06l4.71,4.72c.11.11.09.26-.09.29Z"/></g></g></svg>