<?xml version="1.0" encoding="utf-8"?>
<!-- Generator: Adobe Illustrator 22.0.0, SVG Export Plug-In . SVG Version: 6.00 Build 0)  -->
<svg version="1.1" id="Layer_1" xmlns="http://www.w3.org/2000/svg" xmlns:xlink="http://www.w3.org/1999/xlink" x="0px" y="0px"
	 viewBox="0 0 22.8 21.7" style="enable-background:new 0 0 22.8 21.7;" xml:space="preserve">
<style type="text/css">
	.st0{fill:#FFFDFD;}
</style>
<title>36</title>
<g id="Layer_2_1_">
	<g id="Layer_1-2">
		<path class="st0" d="M11.2,14.2h-1c0.1-1.2,0.7-2.2,1.7-2.8c0.8-0.5,1.4-1.3,1.4-2.2c0-1.2-0.9-2.1-2.1-2.1c-0.1,0-0.2,0-0.2,0
			C9.8,6.8,8.8,7.6,8.7,8.7c0,0.1,0,0.2,0,0.4h-1C7.6,7.4,8.9,6,10.6,6c0.1,0,0.2,0,0.4,0c1.7-0.1,3.2,1.1,3.3,2.8
			c0,0.1,0,0.2,0,0.3c0,1.2-0.7,2.4-1.8,3C11.7,12.7,11.2,13.2,11.2,14.2z"/>
		<rect x="9.9" y="15.4" class="st0" width="1.5" height="0.9"/>
		<path class="st0" d="M20.7,21.7c-1.8,0-3.7-0.5-5.2-1.6C10.4,22.7,4,20.7,1.4,15.5S0.8,3.9,6,1.3s11.5-0.6,14.2,4.6
			c1.7,3.3,1.5,7.2-0.4,10.3c0.4,1.7,1.2,3.2,2.4,4.5l0.7,0.7l-1,0.1C21.5,21.6,21.1,21.7,20.7,21.7z M15.7,18.9l0.3,0.2
			c1.4,1,3.1,1.6,4.8,1.6c-1-1.3-1.7-2.8-2-4.4v-0.2l0.1-0.2c2.9-4.4,1.7-10.2-2.6-13.1S6,1,3.1,5.4S1.4,15.6,5.8,18.5
			c2.9,1.9,6.5,2.1,9.6,0.5L15.7,18.9z"/>
	</g>
</g>
</svg>
