<svg xmlns="http://www.w3.org/2000/svg" viewBox="0 0 13.27 16"><defs><style>.cls-1{fill:#e9e9e9;fill-rule:evenodd;}</style></defs><title>Ресурс 5</title><g id="Слой_2" data-name="Слой 2"><g id="Layer_9" data-name="Layer 9"><path class="cls-1" d="M0,2C.09,2,.39,2,.44,2c.27.08.1-.07.23.16v9.92c0,1.64-.15,3.2,1.26,3.72A27,27,0,0,0,6.68,16c5.41,0,5.92.58,5.92-3.95V2.2c.13-.23,0-.12.31-.18l.36,0V.72c-1.12-.08-2.5,0-3.65,0S8.91.49,8.28.13A4.3,4.3,0,0,0,6.59,0C6,0,5.22-.08,4.88.21c-.6.52-.16.51-1.32.5S1.11.65,0,.72Zm3.36,10H4.59V4.72H3.36Zm5.33,0H9.92V4.72H8.68ZM6,11.95H7.25V4.72H6ZM2,2c.86-.05,1.79,0,2.63,0,1.12-.07-.1-.67,2-.67s1,.54,2,.67c.76.09,1.89,0,2.72,0,.13,3.26,0,7.32,0,10.74,0,.67.13,1.53-.36,1.79-.33.17-8.3.12-8.53,0C1.84,14.37,2,13.54,2,12.87,2,9.41,1.85,5.33,2,2Z"/></g></g></svg>