<svg xmlns="http://www.w3.org/2000/svg" viewBox="0 0 12.73 12.73">
  <title>web-loop</title>
  <g id="Слой_2" data-name="Слой 2">
    <g id="Layer_1" data-name="Layer 1">
      <g>
        <path d="M9.27.9h2.51l-.94.94A6.36,6.36,0,1,1,6.37,0V1a5.41,5.41,0,1,0,3.8,1.55l-.9.9Z" fill="red" fill-rule="evenodd"/>
        <path d="M9.49,6.32a1.66,1.66,0,0,0-.3-1.07,1,1,0,0,0-.8-.37,1.19,1.19,0,0,0-.7.19,2.26,2.26,0,0,0-.59.73,4.54,4.54,0,0,0-.25.47l-.2.47a2.17,2.17,0,0,0,.69.84,1.46,1.46,0,0,0,.84.29,1.22,1.22,0,0,0,1-.39,1.71,1.71,0,0,0,.34-1.15M6.09,6a2.25,2.25,0,0,0-.69-.85,1.44,1.44,0,0,0-.84-.28,1.22,1.22,0,0,0-1,.4,1.71,1.71,0,0,0-.34,1.15,1.67,1.67,0,0,0,.3,1.06,1,1,0,0,0,.8.38A1.24,1.24,0,0,0,5,7.68a2.12,2.12,0,0,0,.6-.74l.24-.44C5.94,6.34,6,6.18,6.09,6Zm4.22.32a2.7,2.7,0,0,1-.54,1.77,1.85,1.85,0,0,1-1.52.67,1.83,1.83,0,0,1-1.12-.39,2.59,2.59,0,0,1-.81-1A3,3,0,0,1,5.47,8.4a1.86,1.86,0,0,1-1.13.35,1.67,1.67,0,0,1-1.39-.66,2.63,2.63,0,0,1-.52-1.67A2.63,2.63,0,0,1,3,4.64,1.89,1.89,0,0,1,4.49,4a1.83,1.83,0,0,1,1.12.39,2.59,2.59,0,0,1,.81,1,2.93,2.93,0,0,1,.85-1.08A1.88,1.88,0,0,1,8.4,4a1.67,1.67,0,0,1,1.39.66A2.63,2.63,0,0,1,10.31,6.32Z" fill="red"/>
      </g>
    </g>
  </g>
</svg>
