<svg xmlns="http://www.w3.org/2000/svg" viewBox="0 0 32766 32766"><title>22@1x</title><path d="M27.45,10.56a.76.76,0,0,0,0,1.11.82.82,0,0,0,1.15,0,.76.76,0,0,0,0-1.11.82.82,0,0,0-1.15,0m-.24-4.17V8.76a.75.75,0,0,0,.24.56.82.82,0,0,0,1.15,0,.75.75,0,0,0,.24-.56V6.39a.74.74,0,0,0-.24-.57.86.86,0,0,0-1.15,0A.74.74,0,0,0,27.21,6.39ZM22.34,12.7,28,2.41,33.68,12.7Zm12.06-.37L28.74,2a.82.82,0,0,0-1.43,0L21.62,12.33a.7.7,0,0,0,0,.78.78.78,0,0,0,.7.38H33.68a.78.78,0,0,0,.7-.38A.7.7,0,0,0,34.4,12.33Z" transform="translate(-8370.04 -8547.71)" fill="none" fill-rule="evenodd"/></svg>