<svg xmlns="http://www.w3.org/2000/svg" viewBox="0 0 18.56 18.45"><title>2@1x</title><path d="M2.71,1.37C-.49,1.3,0,1.08,0,5.93q0,3.61,0,7.21c0,1.2,0,2.41,0,3.61,0,1.76.18,1.69,1.89,1.69H12.83c2.3,0,1.87,0,1.87-5.3,0-.6,0-1.2,0-1.8,0-1-.11-.84.45-1.38s1.17-1.18,1.8-1.8l.9-.9c.25-.24.72-.54.72-1.06s-1.16-1.52-1.62-2c-1.41-1.39-1.36-.42-2.25.11,0-.68.13-2.21-.2-2.64s-1.67-.2-2.48-.35C11.9,0,11.67,0,10.34,0h-6C3,0,2.81.05,2.71,1.37M4,1.24h6.75l0,1.73H4Zm9.44,15.91c-.18.11,0,.1-.62.09H4.33c-.93,0-2.16.07-3.05,0-.11-.36-.15-13.62,0-14.64a3.84,3.84,0,0,1,1.51,0l0,.91c.14.83,1.13.68,2,.68h5.33c.86,0,1.8.13,1.88-.78l0-.83a3.11,3.11,0,0,1,1.49,0,15.07,15.07,0,0,1-.05,3c-.13.33-3.54,3.62-4.08,4.16L7.28,11.81a2.69,2.69,0,0,0-.8,1.26L5.23,15.94c-.21.7.24,1.15.94.94s2-.9,2.88-1.25a2.55,2.55,0,0,0,1.25-.81l2.06-2.06a5.12,5.12,0,0,1,1.11-1ZM2.73,6.41c.53.19,6.79.08,7.69.08a4.49,4.49,0,0,0,1.5-.08c.3-1,.09-1.16-.82-1.16H3.38C2.57,5.24,2.51,5.54,2.73,6.41Zm.65,3.35c1.48,0,3.63.06,5,0l0-.85c-.13-.54-1.08-.34-2.16-.34H3.55c-.64,0-.85-.14-.89.5C2.62,9.82,2.67,9.75,3.38,9.75Zm-.64,3.18a11.25,11.25,0,0,0,3.11,0c.32-1.51-.31-1.17-1.52-1.17C3.5,11.78,2.19,11.43,2.74,12.93Zm4.19,2.25c.16-.52.47-1.11.7-1.65a3,3,0,0,1,1-1.36L9.86,11c.28-.25.3-.31.6-.6L12.88,8c.21-.22.35-.39.59-.61l2.47-2.42,1.21,1.26c-.24.45-6.53,6.63-7.19,7.27A6.58,6.58,0,0,1,6.93,15.18Z" fill="none" fill-rule="evenodd"/></svg>