<svg xmlns="http://www.w3.org/2000/svg" viewBox="0 0 17 25"><title>30@1x</title><g id="Layer_2" data-name="Layer 2"><g id="Layer_1-2" data-name="Layer 1"><path d="M16.5,25H.5a.5.5,0,0,1-.5-.5V.5A.5.5,0,0,1,.5,0h16a.5.5,0,0,1,.5.5v24A.5.5,0,0,1,16.5,25ZM1,24H16V1H1Z" fill="none"/><path d="M13.5,8H3.5A.5.5,0,0,1,3,7.5v-4A.5.5,0,0,1,3.5,3h10a.5.5,0,0,1,.5.5v4A.5.5,0,0,1,13.5,8ZM4,7h9V4H4Z" fill="none"/><path d="M5.5,13h-2a.5.5,0,0,1-.5-.5v-2a.5.5,0,0,1,.5-.5h2a.5.5,0,0,1,.5.5v2A.5.5,0,0,1,5.5,13ZM4,12H5V11H4Z" fill="none"/><path d="M9.5,13h-2a.5.5,0,0,1-.5-.5v-2a.5.5,0,0,1,.5-.5h2a.5.5,0,0,1,.5.5v2A.5.5,0,0,1,9.5,13ZM8,12H9V11H8Z" fill="none"/><path d="M13.5,13h-2a.5.5,0,0,1-.5-.5v-2a.5.5,0,0,1,.5-.5h2a.5.5,0,0,1,.5.5v2A.5.5,0,0,1,13.5,13ZM12,12h1V11H12Z" fill="none"/><path d="M5.5,17h-2a.5.5,0,0,1-.5-.5v-2a.5.5,0,0,1,.5-.5h2a.5.5,0,0,1,.5.5v2A.5.5,0,0,1,5.5,17ZM4,16H5V15H4Z" fill="none"/><path d="M9.5,17h-2a.5.5,0,0,1-.5-.5v-2a.5.5,0,0,1,.5-.5h2a.5.5,0,0,1,.5.5v2A.5.5,0,0,1,9.5,17ZM8,16H9V15H8Z" fill="none"/><path d="M13.5,17h-2a.5.5,0,0,1-.5-.5v-2a.5.5,0,0,1,.5-.5h2a.5.5,0,0,1,.5.5v2A.5.5,0,0,1,13.5,17ZM12,16h1V15H12Z" fill="none"/><path d="M5.5,21h-2a.5.5,0,0,1-.5-.5v-2a.5.5,0,0,1,.5-.5h2a.5.5,0,0,1,.5.5v2A.5.5,0,0,1,5.5,21ZM4,20H5V19H4Z" fill="none"/><path d="M9.5,21h-2a.5.5,0,0,1-.5-.5v-2a.5.5,0,0,1,.5-.5h2a.5.5,0,0,1,.5.5v2A.5.5,0,0,1,9.5,21ZM8,20H9V19H8Z" fill="none"/><path d="M13.5,21h-2a.5.5,0,0,1-.5-.5v-2a.5.5,0,0,1,.5-.5h2a.5.5,0,0,1,.5.5v2A.5.5,0,0,1,13.5,21ZM12,20h1V19H12Z" fill="none"/></g></g></svg>