<svg xmlns="http://www.w3.org/2000/svg" viewBox="0 0 13.25 16.15"><title>32@1x</title><g id="Layer_2" data-name="Layer 2"><g id="Layer_1-2" data-name="Layer 1"><path d="M6.63,9.17A4.58,4.58,0,1,0,2,4.58,4.59,4.59,0,0,0,6.63,9.17ZM6.63,1A3.58,3.58,0,1,1,3,4.58,3.59,3.59,0,0,1,6.63,1Z" fill="none"/><path d="M10.16,9.09l-.34-.18-.26.28A3.47,3.47,0,0,1,7.1,10H6.15a3.48,3.48,0,0,1-2.46-.86L3.43,8.9l-.34.19C1.18,10.12,0,11.24,0,13.61v.2l.13.14a8.37,8.37,0,0,0,6,2.2H7.1a8.37,8.37,0,0,0,6-2.2l.13-.14v-.2C13.25,11.24,12.07,10.12,10.16,9.09ZM7.1,15.15H6.15A7.77,7.77,0,0,1,1,13.4c.05-1.47.65-2.34,2.26-3.27A4.71,4.71,0,0,0,6.15,11H7.1A4.71,4.71,0,0,0,10,10.13c1.61.93,2.21,1.8,2.26,3.26A7.77,7.77,0,0,1,7.1,15.15Z" fill="none"/></g></g></svg>