<svg xmlns="http://www.w3.org/2000/svg" viewBox="0 0 17 25"><title>5@1x</title><path d="M17,6V6a.49.49,0,0,0-.12-.23L11.25.15A.49.49,0,0,0,11,0H.5A.5.5,0,0,0,0,.5v24a.5.5,0,0,0,.5.5h16a.5.5,0,0,0,.5-.5V6.1A.48.48,0,0,0,17,6ZM15.29,5.6H11.4V1.71l1.95,1.95ZM1,24V1h9.4V6.1a.5.5,0,0,0,.5.5H16V24Z" fill="none"/><path d="M12.5,9h-9a.5.5,0,0,0,0,1h9a.5.5,0,0,0,0-1Z" fill="none"/><path d="M3.5,13h7a.5.5,0,0,0,0-1h-7a.5.5,0,0,0,0,1Z" fill="none"/><path d="M11.5,15h-8a.5.5,0,0,0,0,1h8a.5.5,0,0,0,0-1Z" fill="none"/><path d="M10.5,18h-7a.5.5,0,0,0,0,1h7a.5.5,0,0,0,0-1Z" fill="none"/></svg>