<svg xmlns="http://www.w3.org/2000/svg" viewBox="0 0 22.5 25"><title>7@1x</title><path d="M21.31,11a.5.5,0,0,0,0-.71L19.19,8.15a.5.5,0,0,0-.71,0L17,9.63V6.1A.48.48,0,0,0,17,6V6a.49.49,0,0,0-.12-.23L11.25.15A.49.49,0,0,0,11,0H.5A.5.5,0,0,0,0,.5v24a.5.5,0,0,0,.5.5h16a.5.5,0,0,0,.5-.5V15.29ZM18.84,9.21l1.41,1.41-8,8-1.65.24.24-1.65ZM15.29,5.6H11.4V1.71ZM16,24H1V1h9.4V6.1a.5.5,0,0,0,.5.5H16v4l-6,6a.5.5,0,0,0-.14.28L9.5,19.39A.5.5,0,0,0,10,20h.07l2.48-.35a.51.51,0,0,0,.28-.14L16,16.29Z" fill="none"/><path d="M22.35,11.25a.5.5,0,0,0-.71,0l-4,4a.5.5,0,1,0,.71.71l4-4A.5.5,0,0,0,22.35,11.25Z" fill="none"/></svg>