<svg xmlns="http://www.w3.org/2000/svg" viewBox="0 0 15.22 20.7"><title>9-1@1x</title><path d="M10.64,6.12V4.68h.62a1.49,1.49,0,0,0,1.49-1.49V1.49A1.49,1.49,0,0,0,11.26,0H4A1.49,1.49,0,0,0,2.47,1.49v1.7A1.49,1.49,0,0,0,4,4.68h.62V6.12a7.61,7.61,0,1,0,6.06,0ZM7.61,19A5.9,5.9,0,0,1,5.71,7.51a.85.85,0,0,0,.58-.81V3.82A.85.85,0,0,0,5.43,3H4.17V1.7H11V3H9.79a.85.85,0,0,0-.85.85V6.7a.85.85,0,0,0,.58.81A5.9,5.9,0,0,1,7.61,19Z" fill="none" fill-rule="evenodd"/><path d="M6.76,13.16a1.51,1.51,0,1,0-2.79,0H2.77a4.84,4.84,0,0,0,9.68,0Z" fill="none" fill-rule="evenodd"/><circle cx="8.93" cy="11.05" r="0.92" fill="none"/><circle cx="7.06" cy="8.95" r="0.64" fill="none"/></svg>