<svg xmlns="http://www.w3.org/2000/svg" viewBox="0 0 21.55 19.68"><defs><style>.cls-1{fill:#ea2f2f;fill-rule:evenodd;}</style></defs><title>Asset 18</title><g id="Layer_2" data-name="Layer 2"><g id="Layer_1-2" data-name="Layer 1"><path class="cls-1" d="M9.84,14.82a1.27,1.27,0,0,0,0,1.85,1.36,1.36,0,0,0,1.9,0,1.27,1.27,0,0,0,0-1.85,1.36,1.36,0,0,0-1.9,0m-.4-6.91v3.94a1.24,1.24,0,0,0,.4.92,1.35,1.35,0,0,0,1.9,0,1.24,1.24,0,0,0,.4-.92V7.92a1.22,1.22,0,0,0-.4-.94,1.42,1.42,0,0,0-1.9,0A1.22,1.22,0,0,0,9.44,7.92ZM1.37,18.37,10.8,1.31l9.39,17.06Zm20-.62L12,.7A1.26,1.26,0,0,0,10.8,0,1.26,1.26,0,0,0,9.61.7L.19,17.76A1.16,1.16,0,0,0,.21,19a1.3,1.3,0,0,0,1.17.64H20.18A1.3,1.3,0,0,0,21.34,19,1.17,1.17,0,0,0,21.36,17.76Z"/></g></g></svg>