<svg xmlns="http://www.w3.org/2000/svg" viewBox="0 0 22.5 22.5">
  <title>web-clock</title>
  <g id="Слой_2" data-name="Слой 2">
    <g id="Layer_1" data-name="Layer 1">
      <path d="M15.72,10.45H12V5.18a.75.75,0,1,0-1.51,0v6a.73.73,0,0,0,.75.76h4.52a.75.75,0,1,0,0-1.51m5.27.8a9.39,9.39,0,0,1-2.85,6.9A9.39,9.39,0,0,1,11.25,21a9.39,9.39,0,0,1-6.9-2.85,9.4,9.4,0,0,1-2.85-6.9,9.41,9.41,0,0,1,2.85-6.9,9.41,9.41,0,0,1,6.9-2.85,9.41,9.41,0,0,1,6.9,2.85A9.39,9.39,0,0,1,21,11.25Zm-1.79-8a10.84,10.84,0,0,0-8-3.3,10.84,10.84,0,0,0-8,3.3,10.84,10.84,0,0,0-3.3,8,10.84,10.84,0,0,0,3.3,8,10.84,10.84,0,0,0,8,3.29,10.84,10.84,0,0,0,8-3.29,10.84,10.84,0,0,0,3.29-8A10.83,10.83,0,0,0,19.21,3.3Z" fill="#fff" fill-rule="evenodd"/>
    </g>
  </g>
</svg>
